<?xml version="1.0" encoding="UTF-8"?>
<svg width="1440px" height="1359px" viewBox="0 0 1440 1359" version="1.1" xmlns="http://www.w3.org/2000/svg">
  <defs>
    <linearGradient x1="100%" y1="34.4571922%" x2="12.1253927%" y2="60.9866647%" id="hero-gradient">
      <stop stop-color="#1BF005" offset="0%"/>
      <stop stop-color="#48D3E4" offset="57.2161458%"/>
    </linearGradient>
    <filter x="-15.5%" y="-27.9%" width="131.1%" height="155.7%" filterUnits="objectBoundingBox" id="hero-blur">
      <feGaussianBlur stdDeviation="81" in="SourceGraphic"/>
    </filter>
  </defs>
  <g stroke="none" fill="none" fill-rule="evenodd">
    <g transform="translate(0, -20.5)" fill="url(#hero-gradient)">
      <g transform="translate(64, 64)">
        <path d="M1446.07126,778.66648 C1445.7791,926.242943 1339.74638,1037.85624 1198.92162,1064.61681 C1168.96999,1070.78146 1141.25675,1071.5238 1110.67078,1071.42294 C894.819471,1071.66097 398.397415,1071.26963 225.233131,1071.43101 C59.3496836,1080.44399 -99.0105038,981.950748 -116.206528,806.605106 C-132.242951,667.577661 -34.5052124,529.732312 102.654896,500.405832 C123.620631,495.447483 146.93789,492.167468 166.9016,487.015464 C208.950242,477.260143 234.942259,455.191654 253.253438,415.306996 C291.657622,315.038595 352.263909,238.456501 461.484519,209.513295 C531.2868,190.999164 608.466886,199.697457 671.986315,233.954045 C770.051328,287.39045 771.251332,359.542709 902.088185,321.07818 C985.640012,297.19015 1080.65047,316.0109 1144.27091,375.373924 C1179.31346,408.16197 1207.07922,448.236248 1242.90562,480.112505 C1269.93198,505.198769 1300.96644,525.935887 1330.39281,548.315029 C1401.75066,600.492683 1446.63163,688.11709 1446.07126,777.859588 L1446.07126,778.66648 Z" filter="url(#hero-blur)"/>
      </g>
    </g>
  </g>
</svg>
