<?xml version="1.0" encoding="UTF-8"?>
<svg id="Layer_2" data-name="Layer 2" xmlns="http://www.w3.org/2000/svg" viewBox="0 0 387.09 216.14">
  <defs>
    <style>
      .cls-1 {
        fill: #fff;
      }
    </style>
  </defs>
  <g id="Layer_1-2" data-name="Layer 1">
    <path class="cls-1" d="M387.09,143.43c-.07,36.58-26.31,64.24-61.17,70.88-7.41,1.53-14.27,1.71-21.84,1.69-53.42.06-176.29-.04-219.15,0C43.88,218.23,4.68,193.82.43,150.36c-3.97-34.46,20.22-68.63,54.17-75.9,5.19-1.23,10.96-2.04,15.9-3.32,10.41-2.42,16.84-7.89,21.37-17.77,9.51-24.85,24.51-43.83,51.54-51.01,17.28-4.59,36.38-2.43,52.1,6.06,24.27,13.25,24.57,31.13,56.95,21.59,20.68-5.92,44.19-1.26,59.94,13.46,8.67,8.13,15.55,18.06,24.41,25.96,6.69,6.22,14.37,11.36,21.65,16.91,17.66,12.93,28.77,34.65,28.63,56.9v.2Z"/>
  </g>
</svg>