<?xml version="1.0" encoding="UTF-8"?>
<svg id="Layer_2" data-name="Layer 2" xmlns="http://www.w3.org/2000/svg" viewBox="0 0 228.35 99.62">
  <defs>
    <style>
      .cls-1 {
        fill: #231f20;
      }
    </style>
  </defs>
  <g id="Layer_1-2" data-name="Layer 1">
    <g>
      <path class="cls-1" d="M11.42,47.04c-.64,0-.96-.23-.96-.7,0-.38.28-.64.83-.77l1.47-.26c.9-.17,1.48-.4,1.76-.7.28-.3.42-.9.42-1.79V5.18c0-.9-.14-1.49-.42-1.79-.28-.3-.86-.53-1.76-.7l-1.47-.26c-.55-.13-.83-.38-.83-.77,0-.47.32-.7.96-.7h11.71c.64,0,.96.26.96.77,0,.38-.23.62-.7.7l-1.73.26c-.9.13-1.48.36-1.76.7-.28.34-.42.96-.42,1.86v35.84c0,1.54.44,2.65,1.31,3.33.87.68,1.97,1.02,3.3,1.02.98,0,1.99-.2,3.04-.61,1.04-.4,1.99-1.17,2.85-2.3.85-1.13,1.49-2.78,1.92-4.96l.83-4.29c.13-.55.45-.83.96-.83.6,0,.85.36.77,1.09l-.77,12.03c-.09.98-.62,1.47-1.6,1.47H11.42Z"/>
      <path class="cls-1" d="M32.29,47.04c-.64,0-.96-.21-.96-.64s.3-.7.9-.83l.96-.19c.85-.17,1.49-.59,1.92-1.25.43-.66.79-1.59,1.09-2.78L46.11,1.34c.08-.43.22-.7.42-.83.19-.13.37-.19.54-.19.21,0,.42.06.61.19.19.13.33.41.42.83l10.11,40.58c.3,1.2.64,2.03,1.02,2.5.38.47.98.79,1.79.96l.96.19c.6.13.9.41.9.83s-.32.64-.96.64h-10.94c-.6,0-.9-.23-.9-.7s.36-.73,1.09-.77l1.22-.13c.72-.08,1.18-.32,1.38-.7.19-.38.18-1.04-.03-1.98l-2.43-9.92c-.26-1.11-.96-1.66-2.11-1.66h-6.72c-1.11,0-1.81.56-2.11,1.66l-2.18,8.58c-.64,2.43,0,3.78,1.92,4.03l.96.13c.72.13,1.09.38,1.09.77,0,.47-.3.7-.9.7h-8.96ZM42.27,29.25h7.04c.68,0,.96-.36.83-1.09l-4.1-17.15h-.32l-4.29,17.15c-.13.73.15,1.09.83,1.09Z"/>
      <path class="cls-1" d="M69.53,47.62c-.85,0-1.8-.09-2.85-.26-1.05-.17-2.03-.38-2.94-.64-.92-.26-1.63-.53-2.14-.83-.3-.17-.52-.35-.67-.54-.15-.19-.22-.52-.22-.99l-.32-10.05c0-.85.28-1.28.83-1.28.47,0,.79.38.96,1.15l.58,2.43c1.45,6.1,4.16,9.15,8.13,9.15,2.13,0,3.83-.71,5.09-2.14,1.26-1.43,1.89-3.45,1.89-6.05s-.65-4.86-1.95-7.04c-1.3-2.18-3.38-4.33-6.24-6.46-3.16-2.26-5.46-4.45-6.91-6.56-1.45-2.11-2.18-4.36-2.18-6.75,0-3.16,1.1-5.69,3.3-7.58,2.2-1.9,5-2.85,8.42-2.85,1.28,0,2.52.15,3.71.45,1.19.3,2.18.73,2.94,1.28.26.17.46.36.61.58.15.21.22.49.22.83l.19,9.66c0,.73-.28,1.09-.83,1.09-.38,0-.66-.3-.83-.9l-.45-1.6c-.94-3.28-1.91-5.69-2.91-7.2-1-1.51-2.44-2.27-4.32-2.27s-3.3.6-4.38,1.79c-1.09,1.19-1.63,2.88-1.63,5.06,0,1.83.6,3.58,1.79,5.25s3.29,3.69,6.27,6.08c3.2,2.6,5.54,5.11,7.01,7.52,1.47,2.41,2.21,4.98,2.21,7.71,0,2.39-.53,4.48-1.6,6.27-1.07,1.79-2.53,3.19-4.38,4.19-1.86,1-3.98,1.5-6.37,1.5Z"/>
      <path class="cls-1" d="M87.65,47.04c-.64,0-.96-.23-.96-.7s.28-.73.83-.77l2.88-.45c.85-.13,1.43-.35,1.73-.67.3-.32.45-.93.45-1.82V4.22c0-.6-.13-1.02-.38-1.28-.26-.26-.79-.38-1.6-.38-1.58,0-3.14.68-4.67,2.05-1.54,1.37-2.54,3.56-3.01,6.59l-.32,2.11c-.09.56-.38.83-.9.83-.64,0-.92-.36-.83-1.09l.58-11.58c.08-.98.47-1.47,1.15-1.47.3,0,.58.08.83.22.26.15.69.31,1.31.48.62.17,1.61.26,2.98.26h14.27c1.37,0,2.36-.08,2.98-.26.62-.17,1.07-.33,1.34-.48.28-.15.54-.22.8-.22.68,0,1.07.49,1.15,1.47l.58,11.58c.08.73-.19,1.09-.83,1.09-.51,0-.81-.28-.9-.83l-.32-2.11c-.43-3.03-1.41-5.23-2.94-6.59-1.54-1.36-3.12-2.05-4.74-2.05-.81,0-1.34.13-1.6.38-.26.26-.38.68-.38,1.28v38.4c0,.9.16,1.5.48,1.82.32.32.88.54,1.7.67l2.88.45c.55.04.83.3.83.77s-.32.7-.96.7h-14.4Z"/>
      <path class="cls-1" d="M125.85,47.62c-.85,0-1.8-.09-2.85-.26-1.05-.17-2.03-.38-2.94-.64-.92-.26-1.63-.53-2.14-.83-.3-.17-.52-.35-.67-.54-.15-.19-.22-.52-.22-.99l-.32-10.05c0-.85.28-1.28.83-1.28.47,0,.79.38.96,1.15l.58,2.43c1.45,6.1,4.16,9.15,8.13,9.15,2.13,0,3.83-.71,5.09-2.14,1.26-1.43,1.89-3.45,1.89-6.05s-.65-4.86-1.95-7.04c-1.3-2.18-3.38-4.33-6.24-6.46-3.16-2.26-5.46-4.45-6.91-6.56-1.45-2.11-2.18-4.36-2.18-6.75,0-3.16,1.1-5.69,3.3-7.58,2.2-1.9,5-2.85,8.42-2.85,1.28,0,2.52.15,3.71.45,1.19.3,2.18.73,2.94,1.28.26.17.46.36.61.58.15.21.22.49.22.83l.19,9.66c0,.73-.28,1.09-.83,1.09-.38,0-.66-.3-.83-.9l-.45-1.6c-.94-3.28-1.91-5.69-2.91-7.2-1-1.51-2.44-2.27-4.32-2.27s-3.3.6-4.38,1.79c-1.09,1.19-1.63,2.88-1.63,5.06,0,1.83.6,3.58,1.79,5.25s3.29,3.69,6.27,6.08c3.2,2.6,5.54,5.11,7.01,7.52,1.47,2.41,2.21,4.98,2.21,7.71,0,2.39-.53,4.48-1.6,6.27-1.07,1.79-2.53,3.19-4.38,4.19-1.86,1-3.98,1.5-6.37,1.5Z"/>
      <path class="cls-1" d="M138.72,47.04c-.64,0-.96-.23-.96-.7,0-.38.28-.64.83-.77l1.47-.26c.9-.17,1.48-.4,1.76-.7.28-.3.42-.9.42-1.79V5.18c0-.9-.14-1.49-.42-1.79-.28-.3-.86-.53-1.76-.7l-1.47-.26c-.55-.13-.83-.38-.83-.77,0-.47.32-.7.96-.7h21.5c.98,0,1.51.49,1.6,1.47l.51,10.62c.08.73-.19,1.09-.83,1.09-.51,0-.81-.28-.9-.83l-.38-2.37c-.47-2.9-1.43-5.02-2.88-6.37-1.45-1.34-3.46-2.02-6.02-2.02-1.71,0-2.89.25-3.55.74-.66.49-.99,1.35-.99,2.59v15.42c0,.6.3.9.9.9h3.2c1.88,0,3.03-1,3.46-3.01l.64-3.2c.17-.64.53-.92,1.09-.83.47.09.7.45.7,1.09v14.4c0,.64-.23,1-.7,1.09-.55.09-.92-.19-1.09-.83l-.64-3.14c-.3-1.49-.71-2.47-1.25-2.94-.53-.47-1.29-.7-2.27-.7h-3.14c-.6,0-.9.3-.9.9v16.06c0,1.54.39,2.65,1.18,3.33.79.68,2.23,1.02,4.32,1.02s3.96-.54,5.47-1.63,2.57-3.12,3.17-6.11l.77-3.78c.13-.55.45-.83.96-.83.6,0,.85.36.77,1.09l-.64,11.39c-.09.98-.62,1.47-1.6,1.47h-22.46Z"/>
      <path class="cls-1" d="M164.51,47.04c-.64,0-.96-.23-.96-.7,0-.38.28-.64.83-.77l1.47-.26c.9-.17,1.48-.4,1.76-.7.28-.3.42-.9.42-1.79V5.18c0-.9-.14-1.49-.42-1.79-.28-.3-.86-.53-1.76-.7l-1.47-.26c-.55-.13-.83-.38-.83-.77,0-.47.32-.7.96-.7h21.5c.98,0,1.51.49,1.6,1.47l.51,10.62c.08.73-.19,1.09-.83,1.09-.51,0-.81-.28-.9-.83l-.38-2.37c-.47-2.9-1.43-5.02-2.88-6.37-1.45-1.34-3.46-2.02-6.02-2.02-1.71,0-2.89.25-3.55.74-.66.49-.99,1.35-.99,2.59v15.42c0,.6.3.9.9.9h3.2c1.88,0,3.03-1,3.46-3.01l.64-3.2c.17-.64.53-.92,1.09-.83.47.09.7.45.7,1.09v14.4c0,.64-.23,1-.7,1.09-.55.09-.92-.19-1.09-.83l-.64-3.14c-.3-1.49-.71-2.47-1.25-2.94-.53-.47-1.29-.7-2.27-.7h-3.14c-.6,0-.9.3-.9.9v16.06c0,1.54.39,2.65,1.18,3.33.79.68,2.23,1.02,4.32,1.02s3.96-.54,5.47-1.63,2.57-3.12,3.17-6.11l.77-3.78c.13-.55.45-.83.96-.83.6,0,.85.36.77,1.09l-.64,11.39c-.09.98-.62,1.47-1.6,1.47h-22.46Z"/>
      <path class="cls-1" d="M215.58,47.62c-.68,0-1.26-.51-1.73-1.54l-17.34-37.63c-.13-.3-.29-.43-.48-.38-.19.04-.29.23-.29.58v32.9c0,1.19.2,2.1.61,2.72.41.62,1.14,1.01,2.21,1.18l.83.13c.55.04.83.3.83.77s-.32.7-.96.7h-9.15c-.64,0-.96-.23-.96-.7s.28-.73.83-.77l.83-.13c1.11-.17,1.88-.56,2.3-1.18.43-.62.64-1.52.64-2.72V5.18c0-.9-.14-1.49-.42-1.79-.28-.3-.91-.53-1.89-.7l-1.47-.26c-.56-.13-.83-.38-.83-.77,0-.47.32-.7.96-.7h6.85c1.07,0,1.81.47,2.24,1.41l15.1,33.22c.13.26.29.36.48.32.19-.04.29-.19.29-.45V6.46c0-1.36-.24-2.31-.7-2.85-.47-.53-1.07-.86-1.79-.99l-1.15-.19c-.55-.13-.83-.38-.83-.77,0-.47.32-.7.96-.7h9.15c.64,0,.96.23.96.7s-.28.73-.83.77l-.83.13c-1.11.17-1.88.52-2.3,1.06-.43.53-.64,1.48-.64,2.85v39.1c0,.77-.14,1.3-.42,1.6s-.63.45-1.06.45Z"/>
      <path class="cls-1" d="M.9,99.04c-.6,0-.9-.21-.9-.64,0-.47.43-.77,1.28-.9l1.28-.19c.94-.13,1.59-.35,1.95-.67.36-.32.63-.93.8-1.82l8.7-37.63c.21-.9.21-1.49,0-1.79-.21-.3-.75-.53-1.6-.7l-1.28-.26c-.55-.13-.83-.36-.83-.7,0-.51.38-.77,1.15-.77h12.86c3.67,0,6.58,1.35,8.74,4.06,2.15,2.71,3.23,6.73,3.23,12.06,0,3.93-.62,7.69-1.86,11.3-1.24,3.61-2.9,6.81-4.99,9.6-2.09,2.79-4.47,5-7.14,6.62-2.67,1.62-5.45,2.43-8.35,2.43H.9ZM14.27,97.38c2.43,0,4.71-.9,6.85-2.69,2.13-1.79,4.01-4.23,5.63-7.33,1.62-3.09,2.89-6.58,3.81-10.46.92-3.88,1.38-7.89,1.38-12.03,0-3.41-.7-5.97-2.11-7.68-1.41-1.71-3.37-2.56-5.89-2.56-3.2,0-5.16,1.56-5.89,4.67l-7.68,33.41c-.38,1.71-.22,2.91.48,3.62.7.7,1.84,1.06,3.42,1.06Z"/>
      <path class="cls-1" d="M62.21,99.62c-3.71,0-6.08-2.43-7.1-7.3l-1.47-7.1c-.47-2.3-.99-4.05-1.57-5.25-.58-1.19-1.37-2-2.37-2.43-1-.43-2.38-.64-4.13-.64-.6,0-1.07.16-1.41.48-.34.32-.51.71-.51,1.18v16c0,.9.17,1.5.51,1.82.34.32,1.11.59,2.3.8l2.37.38c.47.09.7.32.7.7,0,.51-.32.77-.96.77h-12.99c-.64,0-.96-.23-.96-.7,0-.38.28-.64.83-.77l1.47-.26c.9-.17,1.48-.4,1.76-.7.28-.3.42-.9.42-1.79v-37.63c0-.9-.14-1.49-.42-1.79-.28-.3-.86-.53-1.76-.7l-1.47-.26c-.55-.13-.83-.38-.83-.77,0-.47.32-.7.96-.7h12.99c2.52,0,4.76.49,6.72,1.47,1.96.98,3.5,2.34,4.61,4.06,1.11,1.73,1.66,3.72,1.66,5.98,0,2.69-.81,5.11-2.43,7.26s-3.67,3.68-6.14,4.58c-.3.09-.46.22-.48.42-.02.19.12.35.42.48,1.37.64,2.44,1.54,3.23,2.69.79,1.15,1.4,2.69,1.82,4.61l1.41,6.53c.47,2.22,1.02,3.8,1.66,4.74.64.94,1.45,1.41,2.43,1.41.34,0,.65-.05.93-.16.28-.11.63-.31,1.06-.61.34-.21.66-.27.96-.16.3.11.45.33.45.67,0,.73-.47,1.36-1.41,1.89-.94.53-2.03.8-3.26.8ZM47.94,75.3c2.9,0,5.1-.97,6.59-2.91,1.49-1.94,2.24-4.53,2.24-7.78s-.86-5.62-2.59-7.39c-1.73-1.77-4.11-2.66-7.14-2.66-2.26,0-3.39.85-3.39,2.56v14.66c0,2.35,1.43,3.52,4.29,3.52Z"/>
      <path class="cls-1" d="M64.45,99.04c-.64,0-.96-.23-.96-.7,0-.38.28-.64.83-.77l1.47-.26c.9-.17,1.48-.4,1.76-.7.28-.3.42-.9.42-1.79v-37.63c0-.9-.14-1.49-.42-1.79-.28-.3-.86-.53-1.76-.7l-1.47-.26c-.55-.13-.83-.38-.83-.77,0-.47.32-.7.96-.7h21.5c.98,0,1.51.49,1.6,1.47l.51,10.62c.08.73-.19,1.09-.83,1.09-.51,0-.81-.28-.9-.83l-.38-2.37c-.47-2.9-1.43-5.02-2.88-6.37-1.45-1.34-3.46-2.02-6.02-2.02-1.71,0-2.89.25-3.55.74-.66.49-.99,1.35-.99,2.59v15.42c0,.6.3.9.9.9h3.2c1.88,0,3.03-1,3.46-3.01l.64-3.2c.17-.64.53-.92,1.09-.83.47.09.7.45.7,1.09v14.4c0,.64-.23,1-.7,1.09-.55.09-.92-.19-1.09-.83l-.64-3.14c-.3-1.49-.71-2.47-1.25-2.94-.53-.47-1.29-.7-2.27-.7h-3.14c-.6,0-.9.3-.9.9v16.06c0,1.54.39,2.65,1.18,3.33.79.68,2.23,1.02,4.32,1.02s3.96-.54,5.47-1.63,2.57-3.12,3.17-6.11l.77-3.78c.13-.55.45-.83.96-.83.6,0,.85.36.77,1.09l-.64,11.39c-.09.98-.62,1.47-1.6,1.47h-22.46Z"/>
      <path class="cls-1" d="M87.87,99.04c-.64,0-.96-.21-.96-.64s.3-.7.9-.83l.96-.19c.85-.17,1.49-.59,1.92-1.25.43-.66.79-1.59,1.09-2.78l9.92-40c.08-.43.22-.7.42-.83.19-.13.37-.19.54-.19.21,0,.42.06.61.19.19.13.33.41.42.83l10.11,40.58c.3,1.2.64,2.03,1.02,2.5.38.47.98.79,1.79.96l.96.19c.6.13.9.41.9.83s-.32.64-.96.64h-10.94c-.6,0-.9-.23-.9-.7s.36-.73,1.09-.77l1.22-.13c.72-.08,1.18-.32,1.38-.7.19-.38.18-1.04-.03-1.98l-2.43-9.92c-.26-1.11-.96-1.66-2.11-1.66h-6.72c-1.11,0-1.81.55-2.11,1.66l-2.18,8.58c-.64,2.43,0,3.78,1.92,4.03l.96.13c.72.13,1.09.38,1.09.77,0,.47-.3.7-.9.7h-8.96ZM97.85,81.25h7.04c.68,0,.96-.36.83-1.09l-4.1-17.15h-.32l-4.29,17.15c-.13.73.15,1.09.83,1.09Z"/>
      <path class="cls-1" d="M134.27,98.4c-.17,0-.36-.06-.58-.19-.21-.13-.36-.41-.45-.83l-9.66-39.23c-.04-.3-.17-.44-.38-.42-.21.02-.32.18-.32.48l-1.28,35.33c-.04,1.19.15,2.1.58,2.72.43.62,1.17,1.01,2.24,1.18l.83.13c.55.04.83.3.83.77s-.32.7-.96.7h-9.15c-.64,0-.96-.23-.96-.7s.28-.73.83-.77l.83-.13c1.11-.17,1.87-.56,2.27-1.18.41-.62.63-1.53.67-2.72l1.28-36.35c.04-.9-.09-1.49-.38-1.79-.3-.3-.94-.53-1.92-.7l-1.47-.26c-.55-.13-.83-.38-.83-.77,0-.47.32-.7.96-.7h7.68c1.32,0,2.13.64,2.43,1.92l7.74,31.94c.08.3.22.45.42.45s.31-.15.35-.45l8.06-32.26c.26-1.07.94-1.6,2.05-1.6h7.55c.64,0,.96.23.96.7,0,.38-.28.64-.83.77l-1.47.26c-.9.17-1.49.41-1.79.7s-.43.9-.38,1.79l1.28,37.63c.04.9.19,1.49.45,1.79.26.3.83.53,1.73.7l1.47.26c.55.13.83.38.83.77,0,.47-.32.7-.96.7h-11.58c-.64,0-.96-.23-.96-.7,0-.38.28-.64.83-.77l1.47-.26c.9-.17,1.49-.4,1.79-.7.3-.3.43-.9.38-1.79l-1.09-36.61c0-.3-.1-.46-.29-.48-.19-.02-.33.1-.42.35l-9.73,39.3c-.09.43-.22.7-.42.83s-.37.19-.54.19Z"/>
      <path class="cls-1" d="M155.13,99.04c-.64,0-.96-.23-.96-.7,0-.38.28-.64.83-.77l1.47-.26c.9-.17,1.48-.4,1.76-.7.28-.3.42-.9.42-1.79v-37.63c0-.9-.14-1.49-.42-1.79-.28-.3-.86-.53-1.76-.7l-1.47-.26c-.55-.13-.83-.38-.83-.77,0-.47.32-.7.96-.7h11.58c.64,0,.96.23.96.7,0,.38-.28.64-.83.77l-1.47.26c-.9.17-1.48.41-1.76.7-.28.3-.42.9-.42,1.79v37.63c0,.9.14,1.49.42,1.79.28.3.86.53,1.76.7l1.47.26c.55.13.83.38.83.77,0,.47-.32.7-.96.7h-11.58Z"/>
      <path class="cls-1" d="M193.15,99.62c-.68,0-1.26-.51-1.73-1.54l-17.34-37.63c-.13-.3-.29-.43-.48-.38-.19.04-.29.24-.29.58v32.9c0,1.19.2,2.1.61,2.72.41.62,1.14,1.01,2.21,1.18l.83.13c.55.04.83.3.83.77s-.32.7-.96.7h-9.15c-.64,0-.96-.23-.96-.7s.28-.73.83-.77l.83-.13c1.11-.17,1.88-.56,2.3-1.18.43-.62.64-1.53.64-2.72v-36.35c0-.9-.14-1.49-.42-1.79-.28-.3-.91-.53-1.89-.7l-1.47-.26c-.56-.13-.83-.38-.83-.77,0-.47.32-.7.96-.7h6.85c1.07,0,1.81.47,2.24,1.41l15.1,33.22c.13.26.29.36.48.32.19-.04.29-.19.29-.45v-28.99c0-1.37-.24-2.31-.7-2.85-.47-.53-1.07-.86-1.79-.99l-1.15-.19c-.55-.13-.83-.38-.83-.77,0-.47.32-.7.96-.7h9.15c.64,0,.96.23.96.7s-.28.73-.83.77l-.83.13c-1.11.17-1.88.52-2.3,1.06-.43.53-.64,1.48-.64,2.85v39.1c0,.77-.14,1.3-.42,1.6s-.63.45-1.06.45Z"/>
      <path class="cls-1" d="M214.91,99.62c-3.46,0-6.38-.98-8.77-2.94-2.39-1.96-4.2-4.72-5.44-8.29-1.24-3.56-1.86-7.78-1.86-12.64s.73-8.8,2.18-12.32c1.45-3.52,3.44-6.25,5.98-8.19,2.54-1.94,5.45-2.91,8.74-2.91,1.66,0,3.18.16,4.54.48,1.37.32,2.56.74,3.58,1.25.55.3.83.75.83,1.34l.19,9.73c0,.73-.26,1.09-.77,1.09-.47,0-.77-.28-.9-.83l-.51-1.92c-.94-3.54-2.01-5.97-3.2-7.3-1.2-1.32-2.84-1.98-4.93-1.98-3.11,0-5.69,1.85-7.71,5.54s-3.04,9.04-3.04,16.03,1.03,12.7,3.1,16.48c2.07,3.78,4.72,5.66,7.97,5.66,1.75,0,3.07-.38,3.97-1.15.9-.77,1.34-2.2,1.34-4.29v-14.02c0-.9-.14-1.51-.42-1.86s-.86-.55-1.76-.64l-2.5-.26c-.55-.04-.83-.3-.83-.77s.32-.7.96-.7h11.71c.64,0,.96.26.96.77,0,.38-.24.62-.7.7l-.96.13c-.94.13-1.49.38-1.66.77-.17.38-.26,1.02-.26,1.92v17.34c0,.47-.13.84-.38,1.12-.26.28-.7.59-1.34.93-1.02.51-2.2.93-3.52,1.25-1.32.32-2.86.48-4.61.48Z"/>
    </g>
  </g>
</svg>